<?xml version="1.0" standalone="no"?>
<!DOCTYPE svg PUBLIC "-//W3C//DTD SVG 20010904//EN"
 "http://www.w3.org/TR/2001/REC-SVG-20010904/DTD/svg10.dtd">
<svg version="1.0" xmlns="http://www.w3.org/2000/svg"
 width="2397.000000pt" height="2397.000000pt" viewBox="0 0 2397.000000 2397.000000"
 preserveAspectRatio="xMidYMid meet">

<g transform="translate(0.000000,2397.000000) scale(0.100000,-0.100000)"
fill="#ffffff" stroke="none">
<path d="M11495 23960 c-2519 -112 -4833 -954 -6832 -2486 -404 -310 -726
-596 -1149 -1018 -498 -499 -817 -869 -1212 -1409 -1976 -2698 -2726 -6116
-2067 -9423 572 -2875 2197 -5453 4550 -7220 2455 -1844 5485 -2669 8545
-2328 3363 374 6407 2160 8395 4924 1728 2402 2500 5365 2169 8330 -349 3134
-1930 6007 -4399 7995 -1500 1208 -3268 2035 -5149 2410 -556 111 -1064 176
-1671 215 -220 14 -949 20 -1180 10z m1040 -1440 c2027 -111 3934 -776 5570
-1944 722 -515 1411 -1154 1984 -1841 1381 -1652 2226 -3703 2406 -5840 49
-579 49 -1260 0 -1825 -243 -2806 -1587 -5373 -3765 -7194 -1644 -1375 -3684
-2215 -5830 -2401 -565 -49 -1246 -49 -1825 0 -2137 180 -4188 1025 -5840
2406 -352 294 -804 729 -1093 1051 -1631 1825 -2559 4066 -2692 6503 -13 245
-13 855 0 1100 84 1541 488 3013 1193 4350 507 962 1111 1780 1886 2556 499
498 985 901 1546 1281 1578 1070 3419 1691 5330 1797 221 12 911 13 1130 1z"/>
<path d="M16155 18325 c-104 -28 -1473 -493 -1513 -514 -138 -70 -220 -219
-210 -380 5 -69 30 -144 283 -829 153 -414 276 -754 274 -756 -5 -5 -4945
-887 -4977 -889 -24 -2 -34 21 -253 608 -126 336 -229 613 -229 617 0 4 125 8
278 10 l277 3 60 29 c77 38 153 114 191 191 27 56 29 68 29 175 0 107 -2 119
-29 175 -39 79 -110 149 -194 188 l-67 32 -1054 3 c-1164 3 -1111 5 -1214 -60
-264 -168 -235 -564 51 -705 l57 -28 375 -5 375 -5 100 -270 c56 -148 190
-509 299 -801 l199 -532 -493 -543 c-271 -299 -498 -548 -504 -553 -9 -6 -47
15 -117 61 -476 319 -970 504 -1569 590 -179 25 -730 25 -910 0 -285 -40 -578
-113 -824 -203 -166 -62 -494 -225 -649 -323 -951 -600 -1558 -1563 -1693
-2681 -25 -200 -25 -619 -1 -820 103 -851 478 -1612 1088 -2205 606 -589 1384
-941 2239 -1016 171 -15 593 -6 750 16 831 115 1532 459 2111 1035 492 491
825 1084 980 1748 l33 142 31 0 c42 0 705 -50 732 -55 13 -3 25 -17 32 -37 16
-45 85 -161 136 -228 146 -190 363 -333 612 -402 67 -19 104 -22 263 -22 169
0 193 3 285 27 55 15 145 49 200 76 300 147 504 399 593 730 22 84 25 117 26
261 0 138 -3 179 -22 253 -30 119 -74 227 -131 321 l-48 80 1416 1885 c778
1037 1445 1925 1481 1973 36 48 68 87 71 87 5 1 369 -981 369 -997 0 -4 -21
-18 -47 -31 -81 -39 -232 -130 -368 -222 -333 -225 -621 -501 -872 -837 -657
-877 -880 -2008 -606 -3077 165 -647 507 -1237 988 -1703 819 -796 1931 -1156
3070 -996 940 132 1822 661 2398 1439 391 528 622 1125 698 1805 19 171 17
583 -5 760 -81 671 -311 1254 -699 1772 -571 763 -1392 1266 -2322 1421 -232
39 -403 50 -687 44 -269 -5 -398 -19 -638 -67 -79 -16 -146 -28 -147 -26 -5 5
-1153 3127 -1153 3135 0 5 237 88 527 186 290 97 550 188 576 203 61 33 128
106 164 180 26 52 28 67 28 167 0 98 -3 116 -27 167 -31 67 -103 147 -163 183
-89 51 -210 67 -310 40z m-1685 -3400 c0 -3 -617 -827 -1371 -1831 -1228
-1636 -1373 -1825 -1393 -1819 -11 4 -95 9 -186 10 l-165 3 -538 1442 c-296
793 -536 1445 -533 1448 5 4 4136 748 4174 751 6 1 12 -1 12 -4z m-4355 -2627
l531 -1421 -55 -81 c-29 -45 -67 -110 -83 -146 l-29 -66 -351 28 c-250 19
-354 31 -360 40 -4 7 -8 42 -8 78 0 36 -7 124 -15 195 -83 711 -349 1343 -803
1903 l-83 103 37 42 c261 291 679 747 683 747 3 0 245 -640 536 -1422z m-3800
1052 c380 -28 735 -125 1069 -292 153 -77 316 -174 316 -189 0 -5 -428 -481
-950 -1057 -1087 -1197 -1024 -1118 -1025 -1291 0 -87 3 -102 31 -161 17 -36
46 -83 65 -105 46 -52 138 -111 197 -124 26 -6 681 -61 1457 -121 775 -61
1411 -112 1413 -114 5 -6 -26 -123 -70 -256 -276 -847 -950 -1526 -1795 -1808
-627 -210 -1315 -193 -1923 45 -844 331 -1489 1052 -1715 1917 -114 438 -126
881 -34 1316 235 1106 1121 1977 2235 2194 249 48 487 63 729 46z m11384 -11
c667 -72 1322 -406 1774 -904 422 -466 667 -1012 733 -1633 21 -193 14 -501
-16 -696 -160 -1055 -898 -1935 -1906 -2274 -580 -195 -1218 -195 -1798 0
-1155 388 -1936 1473 -1936 2688 0 1006 532 1932 1408 2450 40 23 75 41 77 38
3 -3 224 -598 491 -1324 267 -725 497 -1340 512 -1367 33 -61 106 -128 180
-164 52 -26 67 -28 167 -28 100 0 115 2 167 28 156 77 252 243 235 407 -4 38
-160 472 -497 1387 -269 733 -490 1336 -490 1341 0 15 236 51 435 66 76 6 355
-3 464 -15z m-9302 -1126 c231 -310 392 -653 484 -1028 32 -133 69 -364 69
-437 0 -46 -1 -47 -27 -43 -16 3 -442 36 -948 75 -506 39 -936 74 -956 78
l-36 7 660 728 c363 400 663 727 667 727 4 0 43 -48 87 -107z"/>
</g>
</svg>
